<svg xmlns="http://www.w3.org/2000/svg" viewBox="0 0 257.45 94.53"><defs><style>.cls-1{fill:#fff;}</style></defs><g id="Layer_2" data-name="Layer 2"><g id="Layer_1-2" data-name="Layer 1"><polygon class="cls-1" points="190.51 19.56 213.11 19.56 213.11 33.04 213.11 93.36 213.8 93.36 234.91 93.36 234.91 63.21 234.91 33.04 234.85 33.04 234.85 33.02 234.91 33.04 234.91 19.51 257.45 19.51 257.45 1.17 190.51 1.17 190.51 19.56"/><path class="cls-1" d="M177.81,32.28a37.69,37.69,0,0,0-74.24-2.07,15,15,0,0,0-.43,2.4,155.45,155.45,0,0,0,0,29.64,37.7,37.7,0,0,0,74.09,2.83,15.82,15.82,0,0,0,.58-3.15A197.8,197.8,0,0,0,177.81,32.28ZM140.59,76.45a15.18,15.18,0,0,1-15.3-14.2c-.56-18.15.36-29.64.36-29.64a15,15,0,0,1,30-.33,255.67,255.67,0,0,1-.36,29.65A15.11,15.11,0,0,1,140.59,76.45Z"/><path class="cls-1" d="M81.86,1.71v91.5H59.57L22.29,36.77V93.21H0V1.71H22.29l37.28,56.7V1.71Z"/></g></g></svg>