<svg xmlns="http://www.w3.org/2000/svg" viewBox="0 0 480.34 96.69"><defs><style>.cls-1{fill:#fff;}</style></defs><g id="Layer_2" data-name="Layer 2"><g id="Layer_1-2" data-name="Layer 1"><path class="cls-1" d="M38.56,18.4A15.42,15.42,0,0,1,54.12,32.84l21.26-5.62A38.33,38.33,0,0,0,1.13,30.74,15.62,15.62,0,0,0,.7,33.17a160.42,160.42,0,0,0,0,30.36C3.5,82.49,20,96.91,39.08,96.69a38.55,38.55,0,0,0,36.2-27.06L53.75,63.57a15.27,15.27,0,0,1-30.51.33c0-.13,0-.24,0-.37-.57-18.45.36-30.36.36-30.36A15.37,15.37,0,0,1,38.56,18.4Z"/><path class="cls-1" d="M298.23.43H253.54V94.2H275V59.59h23.22s24.73-.14,27-22.44V22.87C323,.56,298.23.43,298.23.43Zm5.59,32.41v.92s.62,9.19-9.1,9.19H274.51V17.06h20.21c9.72,0,9.1,9.2,9.1,9.2v6.58Z"/><polygon class="cls-1" points="227.79 0.43 210.5 35.09 192.54 0.43 167.01 0.43 196.41 54.34 196.41 94.2 217.88 94.2 217.88 56.64 248.08 0.43 227.79 0.43"/><polygon class="cls-1" points="328.85 19.13 351.84 19.13 351.84 32.84 351.84 94.2 352.54 94.2 374.01 94.2 374.01 63.53 374.01 32.84 373.95 32.84 373.95 32.83 374.01 32.84 374.01 19.08 396.94 19.08 396.94 0.43 328.85 0.43 328.85 19.13"/><path class="cls-1" d="M165.06,37.15V22.87C162.71.56,137,.43,137,.43H90.56V94.2H112V63.53l0-3.94H129.3L142.62,94.2h23.54L150,56.79C156.77,54,163.87,48.38,165.06,37.15Zm-52.7-4.31V17.06h21c10.11,0,9.46,9.2,9.46,9.2v7.5s.65,9.19-9.46,9.19h-21Z"/><path class="cls-1" d="M479.76,32.84a38.34,38.34,0,0,0-75.51-2.11,13.53,13.53,0,0,0-.43,2.44,157.75,157.75,0,0,0,0,30.15,38.34,38.34,0,0,0,75.35,2.88,15.59,15.59,0,0,0,.59-3.21A199.82,199.82,0,0,0,479.76,32.84ZM441.9,77.77a15.44,15.44,0,0,1-15.56-14.45,300.57,300.57,0,0,1,.37-30.15,15.28,15.28,0,0,1,30.53-.33A262.44,262.44,0,0,1,456.87,63,15.38,15.38,0,0,1,441.9,77.77Z"/></g></g></svg>